<svg version="1.1" id="Layer_1" xmlns="http://www.w3.org/2000/svg" xmlns:xlink="http://www.w3.org/1999/xlink" x="0px" y="0px"
	 width="100%" viewBox="0 0 259 216" enable-background="new 0 0 259 216" xml:space="preserve">
<path fill="#000000" opacity="1.000000" stroke="none" 
	d="
M260.000000,9.000000 
	C260.000000,78.215584 260.000000,147.431168 260.000000,217.000000 
	C243.647461,217.000000 227.292389,217.000000 210.100586,216.764648 
	C212.537628,213.265488 214.560974,209.887741 211.644958,205.170242 
	C200.742889,187.533112 194.616531,168.346313 191.816422,147.767303 
	C188.934616,126.588020 190.438828,105.820282 194.640259,85.071449 
	C198.721786,64.914703 205.930695,45.892525 215.376907,27.664713 
	C215.999405,26.463499 215.717560,24.793634 215.856354,23.341755 
	C214.434280,23.909542 212.637222,24.108761 211.654572,25.108477 
	C207.230865,29.608963 202.876144,34.198788 198.789948,39.005810 
	C179.913071,61.212700 165.002563,85.858208 153.564972,112.611641 
	C143.555527,101.196236 131.466904,96.306763 116.627251,99.019188 
	C113.724174,99.549812 110.869141,100.343231 107.945808,100.659637 
	C108.120483,99.863342 108.278175,99.374939 108.571083,98.989197 
	C135.525436,63.491417 169.427094,37.121273 211.142227,21.063725 
	C226.913345,14.992893 243.203033,10.951505 260.000000,9.000000 
z"/>
<path fill="#199449" opacity="1.000000" stroke="none" 
	d="
M260.000000,8.600004 
	C243.203033,10.951505 226.913345,14.992893 211.142227,21.063725 
	C169.427094,37.121273 135.525436,63.491417 108.571083,98.989197 
	C108.278175,99.374939 108.120483,99.863342 107.971252,100.653770 
	C108.042831,101.003716 108.025330,100.953018 107.746506,100.960312 
	C107.269951,101.273445 107.072212,101.579292 106.600479,102.080063 
	C99.500893,113.910019 92.675301,125.545052 85.593933,137.394043 
	C78.264816,152.846649 73.293663,168.725876 69.676964,185.152145 
	C67.316513,195.872787 69.587143,207.961304 61.000000,217.000000 
	C43.312439,217.000000 25.624876,217.000000 7.645446,216.655136 
	C3.751122,212.791946 2.246285,208.399994 3.336889,203.610992 
	C6.970234,187.656464 9.547780,171.295120 14.949150,155.940720 
	C31.281414,109.513229 60.942833,72.764221 100.747925,44.268982 
	C133.609970,20.744062 170.037415,6.125262 210.659286,2.887432 
	C211.815659,2.795262 212.888306,1.652757 214.000000,1.000002 
	C222.020905,1.000000 230.041809,1.000000 238.520218,1.401936 
	C245.985153,2.869248 252.992569,3.934625 260.000000,5.000000 
	C260.000000,6.066669 260.000000,7.133339 260.000000,8.600004 
z"/>
<path fill="#000000" opacity="1.000000" stroke="none" 
	d="
M213.531342,1.000002 
	C212.888306,1.652757 211.815659,2.795262 210.659286,2.887432 
	C170.037415,6.125262 133.609970,20.744062 100.747925,44.268982 
	C60.942833,72.764221 31.281414,109.513229 14.949150,155.940720 
	C9.547780,171.295120 6.970234,187.656464 3.336889,203.610992 
	C2.246285,208.399994 3.751122,212.791946 7.176789,216.655136 
	C5.002013,217.000000 3.004025,217.000000 1.004529,217.000000 
	C1.003019,145.074478 1.003019,73.148941 1.003019,1.000000 
	C71.687401,1.000000 142.375046,1.000000 213.531342,1.000002 
z"/>
<path fill="#F6CA00" opacity="1.000000" stroke="none" 
	d="
M153.833221,112.773140 
	C165.002563,85.858208 179.913071,61.212700 198.789948,39.005810 
	C202.876144,34.198788 207.230865,29.608963 211.654572,25.108477 
	C212.637222,24.108761 214.434280,23.909542 215.856354,23.341755 
	C215.717560,24.793634 215.999405,26.463499 215.376907,27.664713 
	C205.930695,45.892525 198.721786,64.914703 194.640259,85.071449 
	C190.438828,105.820282 188.934616,126.588020 191.816422,147.767303 
	C194.616531,168.346313 200.742889,187.533112 211.644958,205.170242 
	C214.560974,209.887741 212.537628,213.265488 209.631927,216.764648 
	C187.312439,217.000000 164.624878,217.000000 141.795654,216.727142 
	C134.293671,213.479050 133.609024,207.607468 134.418213,200.721054 
	C135.571091,190.909683 136.297562,181.048187 137.552551,171.129272 
	C161.430786,161.094681 168.658096,132.938217 153.833221,112.773140 
z"/>
<path fill="#000000" opacity="1.000000" stroke="none" 
	d="
M137.206161,171.208115 
	C136.297562,181.048187 135.571091,190.909683 134.418213,200.721054 
	C133.609024,207.607468 134.293671,213.479050 141.326996,216.727142 
	C114.645775,217.000000 88.291542,217.000000 61.468658,217.000000 
	C69.587143,207.961304 67.316513,195.872787 69.676964,185.152145 
	C73.293663,168.725876 78.264816,152.846649 85.642174,137.787170 
	C86.488281,140.555695 86.895241,143.182144 87.593994,145.728516 
	C92.843697,164.859375 112.303581,178.861191 137.206161,171.208115 
z"/>
<path fill="#000000" opacity="1.000000" stroke="none" 
	d="
M260.000000,4.500001 
	C252.992569,3.934625 245.985153,2.869248 238.988861,1.401936 
	C245.166672,1.000000 251.352951,1.291899 257.491882,0.879207 
	C260.651825,0.666776 259.951935,2.345620 260.000000,4.500001 
z"/>
<path fill="#004487" opacity="1.000000" stroke="none" 
	d="
M137.552551,171.129272 
	C112.303581,178.861191 92.843697,164.859375 87.593994,145.728516 
	C86.895241,143.182144 86.488281,140.555695 85.897949,137.573212 
	C92.675301,125.545052 99.500893,113.910019 106.881042,102.044739 
	C107.632172,101.527328 107.828751,101.240173 108.025330,100.953018 
	C108.025330,100.953018 108.042831,101.003716 108.017387,101.009583 
	C110.869141,100.343231 113.724174,99.549812 116.627251,99.019188 
	C131.466904,96.306763 143.555527,101.196236 153.564972,112.611641 
	C168.658096,132.938217 161.430786,161.094681 137.552551,171.129272 
z"/>
<path fill="#000000" opacity="1.000000" stroke="none" 
	d="
M107.746506,100.960312 
	C107.828751,101.240173 107.632172,101.527328 107.155029,101.849808 
	C107.072212,101.579292 107.269951,101.273445 107.746506,100.960312 
z"/>
</svg>